#!OML:ASF E:/inclinewalkrobotboard/Project1/Captureday1/Session1/subject1.ASF
:FULLY-SPECIFIED
:DEGREES
388
root 0 0 0 -8.144078542541052 -5.598762202779321 -4.319114104969473
lowerback 13.68122198213376 1.5917057390008935 4.327248248126955
upperback 2.309440482940804 2.7734884153736887 1.6046482510537527
thorax -5.173298731511381 1.392115669969681 -1.256322869458928
lowerneck -17.537101249399218 -3.667695188716319 -1.7360120740859015
upperneck 18.784035420653748 -4.699655984194156 0.7244704844341463
head 8.773922370856571 -2.289509541580443 -0.07874933187978139
rclavicle 2.9340127415140186E-15 1.1552493714572705E-15
rhumerus -48.07025424886786 -18.202359795150468 -75.3388367670034
rradius 24.36401044410215
rwrist -3.1002842342684254
rhand -21.77520529183417 27.74863210775211
rfingers 7.125020000000058
rthumb 4.6112964527986335 -2.539429607752954
lclavicle -3.3431563741730674E-15 -6.9227117035182034E-15
lhumerus -38.524549452896146 -0.13496188323230207 85.64059351121463
lradius 27.729686562774948
lwrist 8.24202551970016
lhand -31.109178310372045 23.416818356890182
lfingers 7.125020000000037
lthumb -4.33741653212639 53.989571879665604
rfemur -24.74115731445383 23.008787405143707 38.22053363899617
rtibia 25.544150392872126
rfoot -9.803083957169585 -10.948798101193956
rtoes -2.802342202248287
lfemur -16.895492160111402 0.873554032983753 -15.392272113190362
ltibia 57.091863659666025
lfoot 4.813885694265046 -13.276310850073056
ltoes -14.890919048047659
389
root 0 0 0 -8.059086936297383 -7.2150567046726835 -5.018206615375769
lowerback 13.659481330993046 1.8514669757112365 4.982400588618617
upperback 2.2759808949424674 3.1485769170337035 1.5503804188010473
thorax -5.210730798949951 1.553933021381075 -1.7232909502290887
lowerneck -17.272199087083663 -3.7409902544846636 -1.6772681855181377
upperneck 19.088905173897146 -4.885728092765014 0.8333767598171984
head 8.838926364073593 -2.358328965671481 -0.06073159168848363
rclavicle 3.0382974615944162E-15 1.0294758306509776E-15
rhumerus -47.5355214672193 -17.992610803430058 -75.231530961415
rradius 24.797248463779013
rwrist -3.1717991237597936
rhand -21.978357028187382 27.94358112765675
rfingers 7.12502000000006
rthumb 4.422110950662251 -2.361166976470768
lclavicle -4.279136241342641E-15 -6.537356094055164E-15
lhumerus -39.95643730766754 0.755627309334991 85.92676905051479
lradius 27.199331029791978
lwrist 7.16806973270182
lhand -31.29519486627132 22.727175269281492
lfingers 7.125020000000036
lthumb -4.514002123721628 53.33097337418029
rfemur -23.266764520662335 20.456846531184922 36.58895412036095
rtibia 26.705149120821808
rfoot -10.357234746311677 -10.189088673963841
rtoes -3.0492470209052307
lfemur -18.954883694217784 0.057601907753793924 -15.450384431609201
ltibia 53.70178446086234
lfoot 3.9593826782971 -11.479696443262632
ltoes -14.259507167310998
390
root 0 0 0 -7.810542352737727 -8.069090366535512 -5.351278137031991
lowerback 13.640246649682314 1.9617971699359726 5.261472520305078
upperback 2.209373998998407 3.2974230970331035 1.5115545383531335
thorax -5.276126909629872 1.6133284274555724 -1.9347605910101304
lowerneck -17.134079932476446 -3.7738287065055376 -1.6524050016954963
upperneck 19.288855522927026 -4.975016861445991 0.8700274647348158
head 8.887380466211178 -2.3919632375889384 -0.05523505540542306
rclavicle 3.157210635066949E-15 8.550368416386299E-16
rhumerus -47.14671549664753 -17.842961381437167 -74.86214710190751
rradius 25.203792518798227
rwrist -3.094610499884329
rhand -22.19484898698639 28.163021033549228
rfingers 7.125020000000061
rthumb 4.21883290231278 -2.1601761761715075
lclavicle -4.6708823992407555E-15 -6.221938341237875E-15
lhumerus -41.087817740257634 1.4745137531598616 86.06622295109383
lradius 26.92073779593593
lwrist 6.339398922265836
lhand -31.444178681204722 22.26007906913022
lfingers 7.125020000000034
lthumb -4.6561168381805444 52.8862544824198
rfemur -22.03738431047175 18.063633993610225 35.06359257666004
rtibia 27.89892877622086
rfoot -10.778892921045392 -9.663125148548131
rtoes -3.3381480900142186
lfemur -19.245714771112887 -1.2436989554444864 -16.36822000411498
ltibia 48.02699030937808
lfoot 2.1253067780601747 -8.90655403084076
ltoes -13.286056774250456
391
root 0 0 0 -7.665022623903624 -8.327431937001524 -5.435908235167506
lowerback 13.641036707478758 1.991261691152102 5.316146468881571
upperback 2.1784015658599785 3.332665278718628 1.4865824089157305
thorax -5.30991220374182 1.6267611907641562 -1.9945904284126348
lowerneck -17.090813696780945 -3.791129930214077 -1.6515297287518715
upperneck 19.382220895452352 -5.014134415247333 0.884104427142848
head 8.914877815706468 -2.40805668250083 -0.05300846693368921
rclavicle 3.1469420592616067E-15 5.455450828401823E-16
rhumerus -46.87771695866046 -17.757155041467055 -74.3584956023336
rradius 25.53929244436751
rwrist -2.9834172728135044
rhand -22.382189109145457 28.362215570620137
rfingers 7.125020000000063
rthumb 4.0419737030083205 -1.9772666222638122
lclavicle -4.8215786854110265E-15 -6.123292603407851E-15
lhumerus -41.667918099396786 1.964153554927809 86.06398171183054
lradius 26.81553756107479
lwrist 5.7035272783550255
lhand -31.612838662232264 21.971698576978152
lfingers 7.125020000000033
lthumb -4.816942251575352 52.626634463165686
rfemur -21.333466990593607 16.35414761381017 33.90471793811611
rtibia 29.016325571814868
rfoot -10.809975303165574 -9.598591799798385
rtoes -3.6865357001736605
lfemur -16.154586003080155 -3.749959673510185 -17.784615372611533
ltibia 37.47076044118347
lfoot -1.5939331165417165 -5.233805831355259
ltoes -11.145211100275235
392
root 0 0 0 -7.680620180205899 -8.049790000831763 -5.2968137060439835
lowerback 13.650774571027203 1.95972423546296 5.173454809921625
upperback 2.1993849844740527 3.28350047738999 1.469187038366812
thorax -5.289946123080595 1.6087070597998012 -1.9296469162783687
lowerneck -17.113343955896987 -3.7968727549573194 -1.6724842804912154
upperneck 19.35218912900892 -5.0121547513800415 0.888567947347088
head 8.908450903193723 -2.409585115018457 -0.049540417040284446
rclavicle 2.8924257214041226E-15 -2.78644590108347E-17
rhumerus -46.73603274584201 -17.73529467342684 -73.6850413493724
rradius 25.822655010730006
rwrist -2.8542768056721
rhand -22.53653812607569 28.55388811993256
rfingers 7.125020000000064
rthumb 3.895525500540284 -1.7983353542794696
lclavicle -4.92858443626927E-15 -6.366965612223551E-15
lhumerus -41.6626837870855 2.2274115567893427 85.87617489162254
lradius 26.837181594962367
lwrist 5.193838004089503
lhand -31.864886052770483 21.804435131204787
lfingers 7.125020000000033
lthumb -5.057152488086771 52.504995161269946
rfemur -21.21733433416547 15.590400931809938 33.19160793752384
rtibia 30.236960328330895
rfoot -10.0981949067936 -9.94166106920182
rtoes -4.16408322392147
lfemur -10.867134021383826 -6.4938831059905855 -18.68980453917962
ltibia 24.568350992844486
lfoot -6.46499055204405 -1.5141571087661205
ltoes -7.8739549880205235
393
root 0 0 0 -7.75846336122909 -7.338952455740566 -4.9658772658774515
lowerback 13.650916704825274 1.8720429540618704 4.85551254621355
upperback 2.244063383062514 3.151699277357629 1.4512178096418753
thorax -5.235240007403419 1.555979502165299 -1.7584827203765698
lowerneck -17.18745782662867 -3.7887615680245155 -1.7141323584084556
upperneck 19.241090473942318 -4.972221870189236 0.8826424383135056
head 8.881978596901456 -2.3969658532341054 -0.0442203219926629
rclavicle 2.980370966050545E-15 -2.811906137031356E-16
rhumerus -46.87942807669257 -17.756812751013655 -73.08825075200505
rradius 25.96060924837241
rwrist -2.6192544647339027
rhand -22.621947018044768 28.700496636932208
rfingers 7.125020000000064
rthumb 3.814957956586273 -1.6551273899160854
lclavicle -4.613281210155044E-15 -6.535433059719263E-15
lhumerus -41.404085576782684 2.3395856494562945 85.56872510771404
lradius 26.825332809907835
lwrist 4.539975324867179
lhand -32.17499824733921 21.605455884955546
lfingers 7.125020000000034
lthumb -5.350598415013522 52.367268375598336
rfemur -21.20498684660204 15.137209747353012 32.49497271185889
rtibia 31.850116011545015
rfoot -8.720929003657078 -10.530616887851249
rtoes -4.573353866948775
lfemur -8.726273654773571 -6.932586827932825 -19.15339269655003
ltibia 19.450104738842338
lfoot -8.692020181976106 -0.049592857016794056
ltoes -6.172440900903963
394
root 0 0 0 -7.772767986259112 -6.556457170204505 -4.589595939252254
lowerback 13.621964672162832 1.7636870414291492 4.488994943097743
upperback 2.270276790298116 2.9834058598475153 1.4272786078394097
thorax -5.181655295456641 1.4831101572887593 -1.559372274555872
lowerneck -17.264929658679165 -3.769081687162366 -1.760906225791937
upperneck 19.134238357289362 -4.915500906757169 0.8707812032827973
head 8.858597378150915 -2.3764600688082784 -0.037343648442324406
rclavicle 3.3158454248387577E-15 -3.926605357151141E-17
rhumerus -47.10731891846661 -17.780620456975154 -72.88041299884941
rradius 25.944714977031175
rwrist -2.430031602289951
rhand -22.624856230954922 28.752922339842492
rfingers 7.125020000000064
rthumb 3.81290201196132 -1.597529711210214
lclavicle -4.2256123013929714E-15 -6.40443295354811E-15
lhumerus -41.278426209691034 2.4372889788525454 85.29419381652286
lradius 26.71075886003198
lwrist 3.852723475191109
lhand -32.413557539626055 21.348582636376506
lfingers 7.125020000000034
lthumb -5.574024570610167 52.16144096907255
rfemur -20.95219924994251 14.505692406769612 31.684853842584317
rtibia 33.3872849833713
rfoot -7.51097593422204 -11.14706246703705
rtoes -4.847892597495868
lfemur -7.592756834080511 -6.876631871671881 -19.537488599121854
ltibia 18.06502516149229
lfoot -9.50016936822933 0.2899962380667809
ltoes -5.441329544450168
395
root 0 0 0 -7.729632652080937 -5.864798379390486 -4.23151353343794
lowerback 13.567264057154347 1.6556255609190085 4.132915084472993
upperback 2.276730087719411 2.810562310528173 1.401673712542984
thorax -5.135561023869603 1.4048702483445363 -1.3644801786459064
lowerneck -17.325996568183502 -3.7430667482132236 -1.8040376285397255
upperneck 19.04593879015944 -4.854620410724513 0.8558182561136527
head 8.838709837577357 -2.3528662931407522 -0.029913576390394825
rclavicle 3.4429298752650645E-15 2.3554434329182375E-16
rhumerus -47.31247286898242 -17.816160316182327 -72.89328660884483
rradius 25.87510898211562
rwrist -2.3743876207393377
rhand -22.583820301889084 28.738791958508088
rfingers 7.125020000000064
rthumb 3.8519790596459025 -1.6050983059129038
lclavicle -4.061750145274141E-15 -6.255072264645611E-15
lhumerus -41.21997130542337 2.50964174690861 85.11890160412693
lradius 26.600935796413786
lwrist 3.3777588902097566
lhand -32.55271715045248 21.14435568144345
lfingers 7.125020000000035
lthumb -5.703930328527409 51.98790588135085
rfemur -20.822923851670225 14.079955777864953 31.15372930580145
rtibia 34.418671764344516
rfoot -6.738435621014352 -11.652653520456429
rtoes -5.003194607905169
lfemur -6.825868733957222 -6.826551066961352 -19.871564474083655
ltibia 17.773034595837693
lfoot -9.905613630584396 0.35123061190096294
ltoes -5.207476129576671
